<mxfile host="app.diagrams.net" agent="Mozilla/5.0 (Windows NT 10.0; Win64; x64; rv:130.0) Gecko/20100101 Firefox/130.0" version="24.7.16">
  <diagram name="EntryPoint" id="1II3YRtZtNxmjWsJMaif">
    <mxGraphModel dx="2315" dy="813" grid="1" gridSize="10" guides="1" tooltips="1" connect="1" arrows="1" fold="1" page="1" pageScale="1" pageWidth="827" pageHeight="1169" math="0" shadow="0">
      <root>
        <mxCell id="0" />
        <mxCell id="1" parent="0" />
        <mxCell id="oboVhvuW9mkc1A9gLMUk-1" value="EntryPoint : M" style="swimlane;fontStyle=1;align=center;verticalAlign=top;childLayout=stackLayout;horizontal=1;startSize=26;horizontalStack=0;resizeParent=1;resizeParentMax=0;resizeLast=0;collapsible=1;marginBottom=0;whiteSpace=wrap;html=1;" parent="1" vertex="1">
          <mxGeometry x="334" width="180" height="120" as="geometry" />
        </mxCell>
        <mxCell id="k9H06Ltovgeq5uLH_OK0-27" value="&lt;div&gt;- gridData : EnemyGridData&lt;/div&gt;&lt;div&gt;- List&amp;lt;IHittable&amp;gt; enemyTargets&lt;/div&gt;&lt;div&gt;- List&amp;lt;IHittable&amp;gt; playerTargets&lt;br&gt;&lt;/div&gt;" style="html=1;whiteSpace=wrap;" parent="oboVhvuW9mkc1A9gLMUk-1" vertex="1">
          <mxGeometry y="26" width="180" height="64" as="geometry" />
        </mxCell>
        <mxCell id="oboVhvuW9mkc1A9gLMUk-4" value="&lt;div&gt;- Awake()&lt;/div&gt;" style="text;strokeColor=none;fillColor=none;align=left;verticalAlign=top;spacingLeft=4;spacingRight=4;overflow=hidden;rotatable=0;points=[[0,0.5],[1,0.5]];portConstraint=eastwest;whiteSpace=wrap;html=1;" parent="oboVhvuW9mkc1A9gLMUk-1" vertex="1">
          <mxGeometry y="90" width="180" height="30" as="geometry" />
        </mxCell>
        <mxCell id="k9H06Ltovgeq5uLH_OK0-3" value="EnemyPlacer" style="swimlane;fontStyle=1;align=center;verticalAlign=top;childLayout=stackLayout;horizontal=1;startSize=26;horizontalStack=0;resizeParent=1;resizeParentMax=0;resizeLast=0;collapsible=1;marginBottom=0;whiteSpace=wrap;html=1;" parent="1" vertex="1">
          <mxGeometry x="550" y="160" width="210" height="110" as="geometry" />
        </mxCell>
        <mxCell id="k9H06Ltovgeq5uLH_OK0-5" value="" style="line;strokeWidth=1;fillColor=none;align=left;verticalAlign=middle;spacingTop=-1;spacingLeft=3;spacingRight=3;rotatable=0;labelPosition=right;points=[];portConstraint=eastwest;strokeColor=inherit;" parent="k9H06Ltovgeq5uLH_OK0-3" vertex="1">
          <mxGeometry y="26" width="210" height="8" as="geometry" />
        </mxCell>
        <mxCell id="k9H06Ltovgeq5uLH_OK0-6" value="&lt;div&gt;+ GridDataToEnemyGrid()&lt;br&gt;&lt;/div&gt;&lt;div&gt;- TypesToDataGrid()&lt;br&gt;&lt;/div&gt;&lt;div&gt;- DataGridToEnemyGrid()&lt;br&gt;&lt;/div&gt;&lt;div&gt;- CreateEnemy()&lt;br&gt;&lt;/div&gt;" style="text;strokeColor=none;fillColor=none;align=left;verticalAlign=top;spacingLeft=4;spacingRight=4;overflow=hidden;rotatable=0;points=[[0,0.5],[1,0.5]];portConstraint=eastwest;whiteSpace=wrap;html=1;" parent="k9H06Ltovgeq5uLH_OK0-3" vertex="1">
          <mxGeometry y="34" width="210" height="76" as="geometry" />
        </mxCell>
        <mxCell id="k9H06Ltovgeq5uLH_OK0-7" value="EnemyData : SO" style="swimlane;fontStyle=1;align=center;verticalAlign=top;childLayout=stackLayout;horizontal=1;startSize=26;horizontalStack=0;resizeParent=1;resizeParentMax=0;resizeLast=0;collapsible=1;marginBottom=0;whiteSpace=wrap;html=1;" parent="1" vertex="1">
          <mxGeometry x="820" y="80" width="180" height="98" as="geometry" />
        </mxCell>
        <mxCell id="k9H06Ltovgeq5uLH_OK0-8" value="&lt;div&gt;+ Sprite: Sprite&lt;/div&gt;+ ProjectileData ProjectileData" style="text;strokeColor=none;fillColor=none;align=left;verticalAlign=top;spacingLeft=4;spacingRight=4;overflow=hidden;rotatable=0;points=[[0,0.5],[1,0.5]];portConstraint=eastwest;whiteSpace=wrap;html=1;" parent="k9H06Ltovgeq5uLH_OK0-7" vertex="1">
          <mxGeometry y="26" width="180" height="64" as="geometry" />
        </mxCell>
        <mxCell id="k9H06Ltovgeq5uLH_OK0-9" value="" style="line;strokeWidth=1;fillColor=none;align=left;verticalAlign=middle;spacingTop=-1;spacingLeft=3;spacingRight=3;rotatable=0;labelPosition=right;points=[];portConstraint=eastwest;strokeColor=inherit;" parent="k9H06Ltovgeq5uLH_OK0-7" vertex="1">
          <mxGeometry y="90" width="180" height="8" as="geometry" />
        </mxCell>
        <mxCell id="k9H06Ltovgeq5uLH_OK0-34" value="CombinedBoundsExt" style="swimlane;fontStyle=1;align=center;verticalAlign=top;childLayout=stackLayout;horizontal=1;startSize=26;horizontalStack=0;resizeParent=1;resizeParentMax=0;resizeLast=0;collapsible=1;marginBottom=0;whiteSpace=wrap;html=1;" parent="1" vertex="1">
          <mxGeometry x="30" y="30" width="210" height="80" as="geometry" />
        </mxCell>
        <mxCell id="k9H06Ltovgeq5uLH_OK0-36" value="" style="line;strokeWidth=1;fillColor=none;align=left;verticalAlign=middle;spacingTop=-1;spacingLeft=3;spacingRight=3;rotatable=0;labelPosition=right;points=[];portConstraint=eastwest;strokeColor=inherit;" parent="k9H06Ltovgeq5uLH_OK0-34" vertex="1">
          <mxGeometry y="26" width="210" height="8" as="geometry" />
        </mxCell>
        <mxCell id="k9H06Ltovgeq5uLH_OK0-37" value="+ GetCombinedBoundsOfChildren()" style="text;strokeColor=none;fillColor=none;align=left;verticalAlign=top;spacingLeft=4;spacingRight=4;overflow=hidden;rotatable=0;points=[[0,0.5],[1,0.5]];portConstraint=eastwest;whiteSpace=wrap;html=1;" parent="k9H06Ltovgeq5uLH_OK0-34" vertex="1">
          <mxGeometry y="34" width="210" height="46" as="geometry" />
        </mxCell>
        <mxCell id="k9H06Ltovgeq5uLH_OK0-39" value="CameraFitExt" style="swimlane;fontStyle=1;align=center;verticalAlign=top;childLayout=stackLayout;horizontal=1;startSize=26;horizontalStack=0;resizeParent=1;resizeParentMax=0;resizeLast=0;collapsible=1;marginBottom=0;whiteSpace=wrap;html=1;" parent="1" vertex="1">
          <mxGeometry x="30" y="130" width="160" height="60" as="geometry" />
        </mxCell>
        <mxCell id="k9H06Ltovgeq5uLH_OK0-41" value="" style="line;strokeWidth=1;fillColor=none;align=left;verticalAlign=middle;spacingTop=-1;spacingLeft=3;spacingRight=3;rotatable=0;labelPosition=right;points=[];portConstraint=eastwest;strokeColor=inherit;" parent="k9H06Ltovgeq5uLH_OK0-39" vertex="1">
          <mxGeometry y="26" width="160" height="8" as="geometry" />
        </mxCell>
        <mxCell id="k9H06Ltovgeq5uLH_OK0-42" value="+ FitInBounds()" style="text;strokeColor=none;fillColor=none;align=left;verticalAlign=top;spacingLeft=4;spacingRight=4;overflow=hidden;rotatable=0;points=[[0,0.5],[1,0.5]];portConstraint=eastwest;whiteSpace=wrap;html=1;" parent="k9H06Ltovgeq5uLH_OK0-39" vertex="1">
          <mxGeometry y="34" width="160" height="26" as="geometry" />
        </mxCell>
        <mxCell id="3Q8x1tFEz8-8Xuk7gK1A-1" value="Player : M" style="swimlane;fontStyle=1;align=center;verticalAlign=top;childLayout=stackLayout;horizontal=1;startSize=26;horizontalStack=0;resizeParent=1;resizeParentMax=0;resizeLast=0;collapsible=1;marginBottom=0;whiteSpace=wrap;html=1;" parent="1" vertex="1">
          <mxGeometry x="-20" y="526" width="215" height="200" as="geometry">
            <mxRectangle x="306" y="20" width="90" height="30" as="alternateBounds" />
          </mxGeometry>
        </mxCell>
        <mxCell id="3Q8x1tFEz8-8Xuk7gK1A-2" value="&lt;div&gt;- speedMetersPerSeconds : float&lt;/div&gt;&lt;div&gt;- projectileData : ProjectileData&lt;br&gt;&lt;/div&gt;&lt;div&gt;- borderBounds : Bounds&lt;/div&gt;&lt;div&gt;- List&amp;lt;IHittable&amp;gt; targets&lt;/div&gt;&lt;div&gt;- ProjectileData projectileData&lt;br&gt;&lt;/div&gt;&lt;div&gt;+ Renderer Renderer&lt;br&gt;&lt;/div&gt;" style="text;strokeColor=none;fillColor=none;align=left;verticalAlign=top;spacingLeft=4;spacingRight=4;overflow=hidden;rotatable=0;points=[[0,0.5],[1,0.5]];portConstraint=eastwest;whiteSpace=wrap;html=1;" parent="3Q8x1tFEz8-8Xuk7gK1A-1" vertex="1">
          <mxGeometry y="26" width="215" height="104" as="geometry" />
        </mxCell>
        <mxCell id="3Q8x1tFEz8-8Xuk7gK1A-3" value="" style="line;strokeWidth=1;fillColor=none;align=left;verticalAlign=middle;spacingTop=-1;spacingLeft=3;spacingRight=3;rotatable=0;labelPosition=right;points=[];portConstraint=eastwest;strokeColor=inherit;" parent="3Q8x1tFEz8-8Xuk7gK1A-1" vertex="1">
          <mxGeometry y="130" width="215" height="8" as="geometry" />
        </mxCell>
        <mxCell id="3Q8x1tFEz8-8Xuk7gK1A-4" value="- Update()&lt;br&gt;&lt;div&gt;+ OnMove()&lt;/div&gt;&lt;div&gt;+ OnShoot()&lt;br&gt;&lt;/div&gt;" style="text;strokeColor=none;fillColor=none;align=left;verticalAlign=top;spacingLeft=4;spacingRight=4;overflow=hidden;rotatable=0;points=[[0,0.5],[1,0.5]];portConstraint=eastwest;whiteSpace=wrap;html=1;" parent="3Q8x1tFEz8-8Xuk7gK1A-1" vertex="1">
          <mxGeometry y="138" width="215" height="62" as="geometry" />
        </mxCell>
        <mxCell id="3Q8x1tFEz8-8Xuk7gK1A-5" value="BoundsEncapsulatedExt" style="swimlane;fontStyle=1;align=center;verticalAlign=top;childLayout=stackLayout;horizontal=1;startSize=26;horizontalStack=0;resizeParent=1;resizeParentMax=0;resizeLast=0;collapsible=1;marginBottom=0;whiteSpace=wrap;html=1;" parent="1" vertex="1">
          <mxGeometry x="-330" y="620" width="160" height="80" as="geometry" />
        </mxCell>
        <mxCell id="3Q8x1tFEz8-8Xuk7gK1A-6" value="" style="line;strokeWidth=1;fillColor=none;align=left;verticalAlign=middle;spacingTop=-1;spacingLeft=3;spacingRight=3;rotatable=0;labelPosition=right;points=[];portConstraint=eastwest;strokeColor=inherit;" parent="3Q8x1tFEz8-8Xuk7gK1A-5" vertex="1">
          <mxGeometry y="26" width="160" height="8" as="geometry" />
        </mxCell>
        <mxCell id="3Q8x1tFEz8-8Xuk7gK1A-7" value="&lt;div&gt;+ AreEncapsulatedIn()&lt;/div&gt;&lt;div&gt;+ KeepInside()&lt;br&gt;&lt;/div&gt;" style="text;strokeColor=none;fillColor=none;align=left;verticalAlign=top;spacingLeft=4;spacingRight=4;overflow=hidden;rotatable=0;points=[[0,0.5],[1,0.5]];portConstraint=eastwest;whiteSpace=wrap;html=1;" parent="3Q8x1tFEz8-8Xuk7gK1A-5" vertex="1">
          <mxGeometry y="34" width="160" height="46" as="geometry" />
        </mxCell>
        <mxCell id="QKNRnIsmzWucb4mVud2N-3" value="Use" style="endArrow=open;endSize=12;dashed=1;html=1;rounded=0;exitX=-0.004;exitY=0.025;exitDx=0;exitDy=0;exitPerimeter=0;entryX=1;entryY=0.5;entryDx=0;entryDy=0;edgeStyle=orthogonalEdgeStyle;" parent="1" source="3Q8x1tFEz8-8Xuk7gK1A-4" target="3Q8x1tFEz8-8Xuk7gK1A-7" edge="1">
          <mxGeometry width="160" relative="1" as="geometry">
            <mxPoint x="-110" y="700" as="sourcePoint" />
            <mxPoint x="50" y="700" as="targetPoint" />
          </mxGeometry>
        </mxCell>
        <mxCell id="QKNRnIsmzWucb4mVud2N-12" value="Use" style="endArrow=open;endSize=12;dashed=1;html=1;rounded=0;exitX=-0.008;exitY=0.206;exitDx=0;exitDy=0;entryX=1;entryY=0.5;entryDx=0;entryDy=0;exitPerimeter=0;edgeStyle=orthogonalEdgeStyle;" parent="1" source="oboVhvuW9mkc1A9gLMUk-4" target="k9H06Ltovgeq5uLH_OK0-37" edge="1">
          <mxGeometry width="160" relative="1" as="geometry">
            <mxPoint x="310" y="220" as="sourcePoint" />
            <mxPoint x="470" y="220" as="targetPoint" />
          </mxGeometry>
        </mxCell>
        <mxCell id="QKNRnIsmzWucb4mVud2N-14" value="Use" style="endArrow=open;endSize=12;dashed=1;html=1;rounded=0;strokeColor=default;align=center;verticalAlign=middle;fontFamily=Helvetica;fontSize=11;fontColor=default;labelBackgroundColor=default;edgeStyle=orthogonalEdgeStyle;entryX=1;entryY=0.5;entryDx=0;entryDy=0;exitX=0.106;exitY=1.033;exitDx=0;exitDy=0;exitPerimeter=0;" parent="1" target="k9H06Ltovgeq5uLH_OK0-42" edge="1" source="oboVhvuW9mkc1A9gLMUk-4">
          <mxGeometry width="160" relative="1" as="geometry">
            <mxPoint x="360" y="80" as="sourcePoint" />
            <mxPoint x="460" y="240" as="targetPoint" />
          </mxGeometry>
        </mxCell>
        <mxCell id="QKNRnIsmzWucb4mVud2N-22" value="EnemyGridData : SO" style="swimlane;fontStyle=1;align=center;verticalAlign=top;childLayout=stackLayout;horizontal=1;startSize=26;horizontalStack=0;resizeParent=1;resizeParentMax=0;resizeLast=0;collapsible=1;marginBottom=0;whiteSpace=wrap;html=1;fontFamily=Helvetica;fontSize=11;fontColor=default;labelBackgroundColor=default;" parent="1" vertex="1">
          <mxGeometry x="590" y="13" width="160" height="114" as="geometry" />
        </mxCell>
        <mxCell id="QKNRnIsmzWucb4mVud2N-23" value="&lt;div&gt;+ EnemyTypes: EnemyData[]&lt;/div&gt;&lt;div&gt;+ Size : Vector2Int&lt;/div&gt;&lt;div&gt;+ EnemyGap : Vector2&lt;/div&gt;" style="text;strokeColor=none;fillColor=none;align=left;verticalAlign=top;spacingLeft=4;spacingRight=4;overflow=hidden;rotatable=0;points=[[0,0.5],[1,0.5]];portConstraint=eastwest;whiteSpace=wrap;html=1;fontFamily=Helvetica;fontSize=11;fontColor=default;labelBackgroundColor=default;" parent="QKNRnIsmzWucb4mVud2N-22" vertex="1">
          <mxGeometry y="26" width="160" height="54" as="geometry" />
        </mxCell>
        <mxCell id="QKNRnIsmzWucb4mVud2N-24" value="" style="line;strokeWidth=1;fillColor=none;align=left;verticalAlign=middle;spacingTop=-1;spacingLeft=3;spacingRight=3;rotatable=0;labelPosition=right;points=[];portConstraint=eastwest;strokeColor=inherit;fontFamily=Helvetica;fontSize=11;fontColor=default;labelBackgroundColor=default;" parent="QKNRnIsmzWucb4mVud2N-22" vertex="1">
          <mxGeometry y="80" width="160" height="8" as="geometry" />
        </mxCell>
        <mxCell id="QKNRnIsmzWucb4mVud2N-25" value="+ method(type): type" style="text;strokeColor=none;fillColor=none;align=left;verticalAlign=top;spacingLeft=4;spacingRight=4;overflow=hidden;rotatable=0;points=[[0,0.5],[1,0.5]];portConstraint=eastwest;whiteSpace=wrap;html=1;fontFamily=Helvetica;fontSize=11;fontColor=default;labelBackgroundColor=default;" parent="QKNRnIsmzWucb4mVud2N-22" vertex="1">
          <mxGeometry y="88" width="160" height="26" as="geometry" />
        </mxCell>
        <mxCell id="QKNRnIsmzWucb4mVud2N-33" value="" style="endArrow=open;endFill=1;endSize=12;html=1;rounded=0;strokeColor=default;align=center;verticalAlign=middle;fontFamily=Helvetica;fontSize=11;fontColor=default;labelBackgroundColor=default;edgeStyle=orthogonalEdgeStyle;exitX=1.008;exitY=0.795;exitDx=0;exitDy=0;exitPerimeter=0;entryX=0;entryY=0.5;entryDx=0;entryDy=0;" parent="1" source="QKNRnIsmzWucb4mVud2N-23" target="k9H06Ltovgeq5uLH_OK0-8" edge="1">
          <mxGeometry width="160" relative="1" as="geometry">
            <mxPoint x="450" y="530" as="sourcePoint" />
            <mxPoint x="610" y="530" as="targetPoint" />
          </mxGeometry>
        </mxCell>
        <mxCell id="QKNRnIsmzWucb4mVud2N-35" value="Projectile : M" style="swimlane;fontStyle=1;align=center;verticalAlign=top;childLayout=stackLayout;horizontal=1;startSize=26;horizontalStack=0;resizeParent=1;resizeParentMax=0;resizeLast=0;collapsible=1;marginBottom=0;whiteSpace=wrap;html=1;fontFamily=Helvetica;fontSize=11;labelBackgroundColor=default;" parent="1" vertex="1">
          <mxGeometry x="280" y="524" width="190" height="134" as="geometry" />
        </mxCell>
        <mxCell id="aWNIL6AsrdeMZo80I8md-5" value="&lt;div&gt;- List&amp;lt;IHittable&amp;gt; targetRenderers&lt;/div&gt;&lt;div&gt;-ProjectileData data&lt;br&gt;&lt;/div&gt;" style="html=1;whiteSpace=wrap;" vertex="1" parent="QKNRnIsmzWucb4mVud2N-35">
          <mxGeometry y="26" width="190" height="44" as="geometry" />
        </mxCell>
        <mxCell id="QKNRnIsmzWucb4mVud2N-38" value="&lt;div&gt;- Awake()&lt;br&gt;&lt;/div&gt;&lt;div&gt;- Update()&lt;/div&gt;&lt;div&gt;+ SetTargets()&lt;br&gt;&lt;/div&gt;&lt;div&gt;+ SetProjectileData()&lt;br&gt;&lt;/div&gt;" style="text;strokeColor=none;fillColor=none;align=left;verticalAlign=top;spacingLeft=4;spacingRight=4;overflow=hidden;rotatable=0;points=[[0,0.5],[1,0.5]];portConstraint=eastwest;whiteSpace=wrap;html=1;fontFamily=Helvetica;fontSize=11;fontColor=default;labelBackgroundColor=default;" parent="QKNRnIsmzWucb4mVud2N-35" vertex="1">
          <mxGeometry y="70" width="190" height="64" as="geometry" />
        </mxCell>
        <mxCell id="QKNRnIsmzWucb4mVud2N-40" value="Use" style="endArrow=open;endSize=12;dashed=1;html=1;rounded=0;strokeColor=default;align=center;verticalAlign=middle;fontFamily=Helvetica;fontSize=11;fontColor=default;labelBackgroundColor=default;edgeStyle=orthogonalEdgeStyle;entryX=0.25;entryY=1;entryDx=0;entryDy=0;exitX=1;exitY=0.5;exitDx=0;exitDy=0;" parent="1" source="k9H06Ltovgeq5uLH_OK0-6" target="k9H06Ltovgeq5uLH_OK0-7" edge="1">
          <mxGeometry width="160" relative="1" as="geometry">
            <mxPoint x="700" y="400" as="sourcePoint" />
            <mxPoint x="860" y="400" as="targetPoint" />
          </mxGeometry>
        </mxCell>
        <mxCell id="QKNRnIsmzWucb4mVud2N-41" value="Use" style="endArrow=open;endSize=12;dashed=1;html=1;rounded=0;strokeColor=default;align=center;verticalAlign=middle;fontFamily=Helvetica;fontSize=11;fontColor=default;labelBackgroundColor=default;edgeStyle=orthogonalEdgeStyle;exitX=0.901;exitY=1.005;exitDx=0;exitDy=0;entryX=0;entryY=0.5;entryDx=0;entryDy=0;exitPerimeter=0;" parent="1" source="oboVhvuW9mkc1A9gLMUk-4" target="k9H06Ltovgeq5uLH_OK0-6" edge="1">
          <mxGeometry width="160" relative="1" as="geometry">
            <mxPoint x="670.0000000000002" y="199" as="sourcePoint" />
            <mxPoint x="880" y="320" as="targetPoint" />
          </mxGeometry>
        </mxCell>
        <mxCell id="QKNRnIsmzWucb4mVud2N-42" value="" style="endArrow=open;endFill=1;endSize=12;html=1;rounded=0;strokeColor=default;align=center;verticalAlign=middle;fontFamily=Helvetica;fontSize=11;fontColor=default;labelBackgroundColor=default;edgeStyle=orthogonalEdgeStyle;exitX=1;exitY=0.5;exitDx=0;exitDy=0;entryX=0;entryY=0.5;entryDx=0;entryDy=0;" parent="1" source="oboVhvuW9mkc1A9gLMUk-1" target="QKNRnIsmzWucb4mVud2N-23" edge="1">
          <mxGeometry width="160" relative="1" as="geometry">
            <mxPoint x="370" y="220" as="sourcePoint" />
            <mxPoint x="530" y="220" as="targetPoint" />
          </mxGeometry>
        </mxCell>
        <mxCell id="aWNIL6AsrdeMZo80I8md-6" value="«interface»&lt;br&gt;&lt;b&gt;IHittable&lt;/b&gt;" style="html=1;whiteSpace=wrap;" vertex="1" parent="1">
          <mxGeometry x="320" y="360" width="110" height="50" as="geometry" />
        </mxCell>
        <mxCell id="aWNIL6AsrdeMZo80I8md-8" value="Enemy : M" style="swimlane;fontStyle=1;align=center;verticalAlign=top;childLayout=stackLayout;horizontal=1;startSize=26;horizontalStack=0;resizeParent=1;resizeParentMax=0;resizeLast=0;collapsible=1;marginBottom=0;whiteSpace=wrap;html=1;" vertex="1" parent="1">
          <mxGeometry x="550" y="520" width="180" height="150" as="geometry" />
        </mxCell>
        <mxCell id="aWNIL6AsrdeMZo80I8md-9" value="&lt;div&gt;- renderer : SpriteRenderer&lt;/div&gt;&lt;div&gt;- List&amp;lt;IHittable&amp;gt; targets&lt;/div&gt;&lt;div&gt;- ProjectileData projectileData&lt;/div&gt;&lt;div&gt;+ Renderer : SpriteRenderer&lt;br&gt;&lt;/div&gt;" style="text;strokeColor=none;fillColor=none;align=left;verticalAlign=top;spacingLeft=4;spacingRight=4;overflow=hidden;rotatable=0;points=[[0,0.5],[1,0.5]];portConstraint=eastwest;whiteSpace=wrap;html=1;" vertex="1" parent="aWNIL6AsrdeMZo80I8md-8">
          <mxGeometry y="26" width="180" height="74" as="geometry" />
        </mxCell>
        <mxCell id="aWNIL6AsrdeMZo80I8md-10" value="" style="line;strokeWidth=1;fillColor=none;align=left;verticalAlign=middle;spacingTop=-1;spacingLeft=3;spacingRight=3;rotatable=0;labelPosition=right;points=[];portConstraint=eastwest;strokeColor=inherit;" vertex="1" parent="aWNIL6AsrdeMZo80I8md-8">
          <mxGeometry y="100" width="180" height="8" as="geometry" />
        </mxCell>
        <mxCell id="aWNIL6AsrdeMZo80I8md-11" value="&lt;div&gt;- Awake()&lt;br&gt;&lt;/div&gt;&lt;div&gt;+ Hit()&lt;/div&gt;" style="text;strokeColor=none;fillColor=none;align=left;verticalAlign=top;spacingLeft=4;spacingRight=4;overflow=hidden;rotatable=0;points=[[0,0.5],[1,0.5]];portConstraint=eastwest;whiteSpace=wrap;html=1;" vertex="1" parent="aWNIL6AsrdeMZo80I8md-8">
          <mxGeometry y="108" width="180" height="42" as="geometry" />
        </mxCell>
        <mxCell id="aWNIL6AsrdeMZo80I8md-14" value="" style="endArrow=block;dashed=1;endFill=0;endSize=12;html=1;rounded=0;strokeColor=default;align=center;verticalAlign=middle;fontFamily=Helvetica;fontSize=11;fontColor=default;labelBackgroundColor=default;edgeStyle=orthogonalEdgeStyle;exitX=0.25;exitY=0;exitDx=0;exitDy=0;entryX=0.75;entryY=1;entryDx=0;entryDy=0;" edge="1" parent="1" source="aWNIL6AsrdeMZo80I8md-8" target="aWNIL6AsrdeMZo80I8md-6">
          <mxGeometry width="160" relative="1" as="geometry">
            <mxPoint x="480" y="520" as="sourcePoint" />
            <mxPoint x="640" y="520" as="targetPoint" />
          </mxGeometry>
        </mxCell>
        <mxCell id="aWNIL6AsrdeMZo80I8md-16" value="Use" style="endArrow=open;endSize=12;dashed=1;html=1;rounded=0;strokeColor=default;align=center;verticalAlign=middle;fontFamily=Helvetica;fontSize=11;fontColor=default;labelBackgroundColor=default;edgeStyle=orthogonalEdgeStyle;exitX=1;exitY=0.75;exitDx=0;exitDy=0;entryX=0;entryY=0.5;entryDx=0;entryDy=0;" edge="1" parent="1" source="3Q8x1tFEz8-8Xuk7gK1A-1" target="aWNIL6AsrdeMZo80I8md-48">
          <mxGeometry width="160" relative="1" as="geometry">
            <mxPoint x="100" y="540" as="sourcePoint" />
            <mxPoint x="260" y="540" as="targetPoint" />
          </mxGeometry>
        </mxCell>
        <mxCell id="aWNIL6AsrdeMZo80I8md-18" value="" style="endArrow=block;dashed=1;endFill=0;endSize=12;html=1;rounded=0;strokeColor=default;align=center;verticalAlign=middle;fontFamily=Helvetica;fontSize=11;fontColor=default;labelBackgroundColor=default;edgeStyle=orthogonalEdgeStyle;exitX=1;exitY=0;exitDx=0;exitDy=0;entryX=0.25;entryY=1;entryDx=0;entryDy=0;" edge="1" parent="1" source="3Q8x1tFEz8-8Xuk7gK1A-1" target="aWNIL6AsrdeMZo80I8md-6">
          <mxGeometry width="160" relative="1" as="geometry">
            <mxPoint x="200" y="680" as="sourcePoint" />
            <mxPoint x="360" y="680" as="targetPoint" />
          </mxGeometry>
        </mxCell>
        <mxCell id="aWNIL6AsrdeMZo80I8md-19" value="Use" style="endArrow=open;endSize=12;dashed=1;html=1;rounded=0;strokeColor=default;align=center;verticalAlign=middle;fontFamily=Helvetica;fontSize=11;fontColor=default;labelBackgroundColor=default;edgeStyle=orthogonalEdgeStyle;exitX=0;exitY=0.5;exitDx=0;exitDy=0;entryX=1;entryY=0.75;entryDx=0;entryDy=0;" edge="1" parent="1" source="aWNIL6AsrdeMZo80I8md-11" target="aWNIL6AsrdeMZo80I8md-48">
          <mxGeometry width="160" relative="1" as="geometry">
            <mxPoint x="500" y="740" as="sourcePoint" />
            <mxPoint x="660" y="740" as="targetPoint" />
          </mxGeometry>
        </mxCell>
        <mxCell id="aWNIL6AsrdeMZo80I8md-20" value="" style="endArrow=open;endFill=1;endSize=12;html=1;rounded=0;strokeColor=default;align=center;verticalAlign=middle;fontFamily=Helvetica;fontSize=11;fontColor=default;labelBackgroundColor=default;edgeStyle=orthogonalEdgeStyle;exitX=0.5;exitY=0;exitDx=0;exitDy=0;entryX=0.5;entryY=1;entryDx=0;entryDy=0;" edge="1" parent="1" source="QKNRnIsmzWucb4mVud2N-35" target="aWNIL6AsrdeMZo80I8md-6">
          <mxGeometry width="160" relative="1" as="geometry">
            <mxPoint x="320" y="720" as="sourcePoint" />
            <mxPoint x="480" y="720" as="targetPoint" />
          </mxGeometry>
        </mxCell>
        <mxCell id="aWNIL6AsrdeMZo80I8md-22" value="Use" style="endArrow=open;endSize=12;dashed=1;html=1;rounded=0;strokeColor=default;align=center;verticalAlign=middle;fontFamily=Helvetica;fontSize=11;fontColor=default;labelBackgroundColor=default;edgeStyle=orthogonalEdgeStyle;exitX=0.619;exitY=0.987;exitDx=0;exitDy=0;exitPerimeter=0;entryX=0.75;entryY=0;entryDx=0;entryDy=0;" edge="1" parent="1" source="k9H06Ltovgeq5uLH_OK0-6" target="aWNIL6AsrdeMZo80I8md-8">
          <mxGeometry width="160" relative="1" as="geometry">
            <mxPoint x="720" y="410" as="sourcePoint" />
            <mxPoint x="880" y="410" as="targetPoint" />
          </mxGeometry>
        </mxCell>
        <mxCell id="aWNIL6AsrdeMZo80I8md-23" value="" style="endArrow=open;endFill=1;endSize=12;html=1;rounded=0;strokeColor=default;align=center;verticalAlign=middle;fontFamily=Helvetica;fontSize=11;fontColor=default;labelBackgroundColor=default;edgeStyle=orthogonalEdgeStyle;exitX=0.506;exitY=1.033;exitDx=0;exitDy=0;exitPerimeter=0;entryX=0.75;entryY=0;entryDx=0;entryDy=0;" edge="1" parent="1" source="oboVhvuW9mkc1A9gLMUk-4" target="aWNIL6AsrdeMZo80I8md-6">
          <mxGeometry width="160" relative="1" as="geometry">
            <mxPoint x="460" y="270" as="sourcePoint" />
            <mxPoint x="620" y="270" as="targetPoint" />
          </mxGeometry>
        </mxCell>
        <mxCell id="aWNIL6AsrdeMZo80I8md-30" value="" style="endArrow=open;endFill=1;endSize=12;html=1;rounded=0;strokeColor=default;align=center;verticalAlign=middle;fontFamily=Helvetica;fontSize=11;fontColor=default;labelBackgroundColor=default;edgeStyle=orthogonalEdgeStyle;exitX=0.311;exitY=1.033;exitDx=0;exitDy=0;exitPerimeter=0;entryX=0.75;entryY=0;entryDx=0;entryDy=0;" edge="1" parent="1" source="oboVhvuW9mkc1A9gLMUk-4" target="3Q8x1tFEz8-8Xuk7gK1A-1">
          <mxGeometry width="160" relative="1" as="geometry">
            <mxPoint x="110" y="320" as="sourcePoint" />
            <mxPoint x="270" y="320" as="targetPoint" />
          </mxGeometry>
        </mxCell>
        <mxCell id="aWNIL6AsrdeMZo80I8md-31" value="" style="endArrow=open;endFill=1;endSize=12;html=1;rounded=0;strokeColor=default;align=center;verticalAlign=middle;fontFamily=Helvetica;fontSize=11;fontColor=default;labelBackgroundColor=default;edgeStyle=orthogonalEdgeStyle;exitX=0.874;exitY=0;exitDx=0;exitDy=0;exitPerimeter=0;entryX=0;entryY=0.5;entryDx=0;entryDy=0;" edge="1" parent="1" source="3Q8x1tFEz8-8Xuk7gK1A-1" target="aWNIL6AsrdeMZo80I8md-6">
          <mxGeometry width="160" relative="1" as="geometry">
            <mxPoint x="220" y="410" as="sourcePoint" />
            <mxPoint x="380" y="410" as="targetPoint" />
          </mxGeometry>
        </mxCell>
        <mxCell id="aWNIL6AsrdeMZo80I8md-32" value="" style="endArrow=open;endFill=1;endSize=12;html=1;rounded=0;strokeColor=default;align=center;verticalAlign=middle;fontFamily=Helvetica;fontSize=11;fontColor=default;labelBackgroundColor=default;edgeStyle=orthogonalEdgeStyle;exitX=0.5;exitY=0;exitDx=0;exitDy=0;entryX=1;entryY=0.5;entryDx=0;entryDy=0;" edge="1" parent="1" source="aWNIL6AsrdeMZo80I8md-8" target="aWNIL6AsrdeMZo80I8md-6">
          <mxGeometry width="160" relative="1" as="geometry">
            <mxPoint x="570" y="360" as="sourcePoint" />
            <mxPoint x="730" y="360" as="targetPoint" />
          </mxGeometry>
        </mxCell>
        <mxCell id="aWNIL6AsrdeMZo80I8md-33" value="ProjectileData : SO" style="swimlane;fontStyle=1;align=center;verticalAlign=top;childLayout=stackLayout;horizontal=1;startSize=26;horizontalStack=0;resizeParent=1;resizeParentMax=0;resizeLast=0;collapsible=1;marginBottom=0;whiteSpace=wrap;html=1;fontFamily=Helvetica;fontSize=11;fontColor=default;labelBackgroundColor=default;" vertex="1" parent="1">
          <mxGeometry x="310" y="706" width="160" height="88" as="geometry" />
        </mxCell>
        <mxCell id="aWNIL6AsrdeMZo80I8md-34" value="&lt;div&gt;+ Sprite Sprite&lt;br&gt;&lt;/div&gt;&lt;div&gt;+ Color Color&lt;/div&gt;&lt;div&gt;+ Vector2 Direction&lt;/div&gt;" style="text;strokeColor=none;fillColor=none;align=left;verticalAlign=top;spacingLeft=4;spacingRight=4;overflow=hidden;rotatable=0;points=[[0,0.5],[1,0.5]];portConstraint=eastwest;whiteSpace=wrap;html=1;fontFamily=Helvetica;fontSize=11;fontColor=default;labelBackgroundColor=default;" vertex="1" parent="aWNIL6AsrdeMZo80I8md-33">
          <mxGeometry y="26" width="160" height="54" as="geometry" />
        </mxCell>
        <mxCell id="aWNIL6AsrdeMZo80I8md-35" value="" style="line;strokeWidth=1;fillColor=none;align=left;verticalAlign=middle;spacingTop=-1;spacingLeft=3;spacingRight=3;rotatable=0;labelPosition=right;points=[];portConstraint=eastwest;strokeColor=inherit;fontFamily=Helvetica;fontSize=11;fontColor=default;labelBackgroundColor=default;" vertex="1" parent="aWNIL6AsrdeMZo80I8md-33">
          <mxGeometry y="80" width="160" height="8" as="geometry" />
        </mxCell>
        <mxCell id="aWNIL6AsrdeMZo80I8md-38" value="" style="endArrow=open;endFill=1;endSize=12;html=1;rounded=0;strokeColor=default;align=center;verticalAlign=middle;fontFamily=Helvetica;fontSize=11;fontColor=default;labelBackgroundColor=default;edgeStyle=orthogonalEdgeStyle;exitX=0.544;exitY=0.989;exitDx=0;exitDy=0;exitPerimeter=0;entryX=0;entryY=0.5;entryDx=0;entryDy=0;" edge="1" parent="1" source="3Q8x1tFEz8-8Xuk7gK1A-4" target="aWNIL6AsrdeMZo80I8md-34">
          <mxGeometry width="160" relative="1" as="geometry">
            <mxPoint x="90" y="850" as="sourcePoint" />
            <mxPoint x="250" y="850" as="targetPoint" />
          </mxGeometry>
        </mxCell>
        <mxCell id="aWNIL6AsrdeMZo80I8md-39" value="" style="endArrow=open;endFill=1;endSize=12;html=1;rounded=0;strokeColor=default;align=center;verticalAlign=middle;fontFamily=Helvetica;fontSize=11;fontColor=default;labelBackgroundColor=default;edgeStyle=orthogonalEdgeStyle;exitX=0.713;exitY=1;exitDx=0;exitDy=0;exitPerimeter=0;entryX=1;entryY=0.5;entryDx=0;entryDy=0;" edge="1" parent="1" source="aWNIL6AsrdeMZo80I8md-11" target="aWNIL6AsrdeMZo80I8md-34">
          <mxGeometry width="160" relative="1" as="geometry">
            <mxPoint x="670" y="810" as="sourcePoint" />
            <mxPoint x="830" y="810" as="targetPoint" />
          </mxGeometry>
        </mxCell>
        <mxCell id="aWNIL6AsrdeMZo80I8md-40" value="&lt;div&gt;TargetRegistry&lt;/div&gt;" style="swimlane;fontStyle=1;align=center;verticalAlign=top;childLayout=stackLayout;horizontal=1;startSize=26;horizontalStack=0;resizeParent=1;resizeParentMax=0;resizeLast=0;collapsible=1;marginBottom=0;whiteSpace=wrap;html=1;fontFamily=Helvetica;fontSize=11;fontColor=default;labelBackgroundColor=default;" vertex="1" parent="1">
          <mxGeometry x="310" y="840" width="180" height="78" as="geometry" />
        </mxCell>
        <mxCell id="aWNIL6AsrdeMZo80I8md-41" value="+ List&amp;lt;IHittable&amp;gt; playerTargets&lt;br&gt;+ List&amp;lt;IHittable&amp;gt; enemyTargets" style="text;strokeColor=none;fillColor=none;align=left;verticalAlign=top;spacingLeft=4;spacingRight=4;overflow=hidden;rotatable=0;points=[[0,0.5],[1,0.5]];portConstraint=eastwest;whiteSpace=wrap;html=1;fontFamily=Helvetica;fontSize=11;fontColor=default;labelBackgroundColor=default;" vertex="1" parent="aWNIL6AsrdeMZo80I8md-40">
          <mxGeometry y="26" width="180" height="44" as="geometry" />
        </mxCell>
        <mxCell id="aWNIL6AsrdeMZo80I8md-42" value="" style="line;strokeWidth=1;fillColor=none;align=left;verticalAlign=middle;spacingTop=-1;spacingLeft=3;spacingRight=3;rotatable=0;labelPosition=right;points=[];portConstraint=eastwest;strokeColor=inherit;fontFamily=Helvetica;fontSize=11;fontColor=default;labelBackgroundColor=default;" vertex="1" parent="aWNIL6AsrdeMZo80I8md-40">
          <mxGeometry y="70" width="180" height="8" as="geometry" />
        </mxCell>
        <mxCell id="aWNIL6AsrdeMZo80I8md-44" value="Use" style="endArrow=open;endSize=12;dashed=1;html=1;rounded=0;strokeColor=default;align=center;verticalAlign=middle;fontFamily=Helvetica;fontSize=11;fontColor=default;labelBackgroundColor=default;edgeStyle=orthogonalEdgeStyle;exitX=0.358;exitY=1;exitDx=0;exitDy=0;exitPerimeter=0;entryX=0;entryY=0.5;entryDx=0;entryDy=0;" edge="1" parent="1" source="3Q8x1tFEz8-8Xuk7gK1A-4" target="aWNIL6AsrdeMZo80I8md-41">
          <mxGeometry width="160" relative="1" as="geometry">
            <mxPoint x="130" y="900" as="sourcePoint" />
            <mxPoint x="290" y="900" as="targetPoint" />
          </mxGeometry>
        </mxCell>
        <mxCell id="aWNIL6AsrdeMZo80I8md-45" value="Use" style="endArrow=open;endSize=12;dashed=1;html=1;rounded=0;strokeColor=default;align=center;verticalAlign=middle;fontFamily=Helvetica;fontSize=11;fontColor=default;labelBackgroundColor=default;edgeStyle=orthogonalEdgeStyle;exitX=0.85;exitY=0.976;exitDx=0;exitDy=0;exitPerimeter=0;entryX=1;entryY=0.5;entryDx=0;entryDy=0;" edge="1" parent="1" source="aWNIL6AsrdeMZo80I8md-11" target="aWNIL6AsrdeMZo80I8md-40">
          <mxGeometry width="160" relative="1" as="geometry">
            <mxPoint x="720" y="880" as="sourcePoint" />
            <mxPoint x="880" y="880" as="targetPoint" />
          </mxGeometry>
        </mxCell>
        <mxCell id="aWNIL6AsrdeMZo80I8md-46" value="" style="endArrow=open;endFill=1;endSize=12;html=1;rounded=0;strokeColor=default;align=center;verticalAlign=middle;fontFamily=Helvetica;fontSize=11;fontColor=default;labelBackgroundColor=default;edgeStyle=orthogonalEdgeStyle;exitX=0.75;exitY=0;exitDx=0;exitDy=0;entryX=1;entryY=1;entryDx=0;entryDy=0;" edge="1" parent="1" source="aWNIL6AsrdeMZo80I8md-40" target="aWNIL6AsrdeMZo80I8md-6">
          <mxGeometry width="160" relative="1" as="geometry">
            <mxPoint x="540" y="840" as="sourcePoint" />
            <mxPoint x="700" y="840" as="targetPoint" />
          </mxGeometry>
        </mxCell>
        <mxCell id="aWNIL6AsrdeMZo80I8md-48" value="ProjectileCreator" style="swimlane;fontStyle=1;align=center;verticalAlign=top;childLayout=stackLayout;horizontal=1;startSize=26;horizontalStack=0;resizeParent=1;resizeParentMax=0;resizeLast=0;collapsible=1;marginBottom=0;whiteSpace=wrap;html=1;fontFamily=Helvetica;fontSize=11;fontColor=default;labelBackgroundColor=default;" vertex="1" parent="1">
          <mxGeometry x="334" y="990" width="160" height="60" as="geometry" />
        </mxCell>
        <mxCell id="aWNIL6AsrdeMZo80I8md-50" value="" style="line;strokeWidth=1;fillColor=none;align=left;verticalAlign=middle;spacingTop=-1;spacingLeft=3;spacingRight=3;rotatable=0;labelPosition=right;points=[];portConstraint=eastwest;strokeColor=inherit;fontFamily=Helvetica;fontSize=11;fontColor=default;labelBackgroundColor=default;" vertex="1" parent="aWNIL6AsrdeMZo80I8md-48">
          <mxGeometry y="26" width="160" height="8" as="geometry" />
        </mxCell>
        <mxCell id="aWNIL6AsrdeMZo80I8md-51" value="+ Create()" style="text;strokeColor=none;fillColor=none;align=left;verticalAlign=top;spacingLeft=4;spacingRight=4;overflow=hidden;rotatable=0;points=[[0,0.5],[1,0.5]];portConstraint=eastwest;whiteSpace=wrap;html=1;fontFamily=Helvetica;fontSize=11;fontColor=default;labelBackgroundColor=default;" vertex="1" parent="aWNIL6AsrdeMZo80I8md-48">
          <mxGeometry y="34" width="160" height="26" as="geometry" />
        </mxCell>
        <mxCell id="aWNIL6AsrdeMZo80I8md-52" value="Use" style="endArrow=open;endSize=12;dashed=1;html=1;rounded=0;strokeColor=default;align=center;verticalAlign=middle;fontFamily=Helvetica;fontSize=11;fontColor=default;labelBackgroundColor=default;edgeStyle=orthogonalEdgeStyle;exitX=1;exitY=0;exitDx=0;exitDy=0;entryX=1;entryY=0.75;entryDx=0;entryDy=0;" edge="1" parent="1" source="aWNIL6AsrdeMZo80I8md-48" target="aWNIL6AsrdeMZo80I8md-33">
          <mxGeometry width="160" relative="1" as="geometry">
            <mxPoint x="210" y="920" as="sourcePoint" />
            <mxPoint x="370" y="920" as="targetPoint" />
            <Array as="points">
              <mxPoint x="580" y="990" />
              <mxPoint x="580" y="772" />
            </Array>
          </mxGeometry>
        </mxCell>
      </root>
    </mxGraphModel>
  </diagram>
</mxfile>
